<svg width="56" height="9" viewBox="0 0 56 9" fill="none" xmlns="http://www.w3.org/2000/svg">
<path d="M4.72266 6.95703H2.01562V0.558594H0.820312V8H4.72266V6.95703ZM6.60938 8V2.25781H5.44922V8H6.60938ZM6.60938 1.23828V0.171875H5.44922V1.23828H6.60938ZM10.1367 2.16406C9.56641 2.17188 9.21875 2.40234 9.09375 2.85547L9 2.25781H7.98047L7.99219 8H9.14062L9.12891 3.23047C9.14453 3.15234 9.1875 3.10938 9.25781 3.10156H10.875C10.9531 3.11719 10.9961 3.16016 11.0039 3.23047V8H12.1523V3.44141C12.1523 2.80078 11.9336 2.40625 11.4961 2.25781C11.3086 2.19531 11.0742 2.16406 10.793 2.16406H10.1367ZM16.6055 8.09375V7.12109H14.5078C14.4297 7.10547 14.3867 7.0625 14.3789 6.99219V3.26562C14.3945 3.1875 14.4375 3.14453 14.5078 3.13672H16.6055V2.16406H14.8359C14.0312 2.16406 13.5312 2.39844 13.3359 2.86719C13.2578 3.07031 13.2188 3.31641 13.2188 3.60547V6.65234C13.2188 7.36328 13.4766 7.80469 13.9922 7.97656C14.2188 8.05469 14.5 8.09375 14.8359 8.09375H16.6055ZM20.1797 8.09375C20.8359 8.08594 21.2422 7.85156 21.3984 7.39062C21.5547 7.85156 21.9609 8.08594 22.6172 8.09375H23.8594C24.5469 8.09375 24.9688 7.88281 25.125 7.46094C25.1875 7.28125 25.2188 7.0625 25.2188 6.80469L25.207 0.558594H24L24.0117 6.88672C23.9961 6.96484 23.957 7.00781 23.8945 7.01562H22.1016C22.0312 7 21.9922 6.95703 21.9844 6.88672V0.558594H20.8125V6.88672C20.7969 6.96484 20.7578 7.00781 20.6953 7.01562H18.9258C18.8477 7 18.8047 6.95703 18.7969 6.88672V0.558594H17.5898V6.81641C17.5898 7.44922 17.8047 7.83984 18.2344 7.98828C18.4297 8.05859 18.6758 8.09375 18.9727 8.09375H20.1797ZM30.5156 8.07031V7.09766H27.8438C27.7656 7.08203 27.7227 7.03906 27.7148 6.96875V5.78516H30.6562V3.54688C30.6562 2.89844 30.4688 2.48828 30.0938 2.31641C29.8672 2.21484 29.5586 2.16406 29.168 2.16406H28.0195C27.3477 2.16406 26.918 2.32812 26.7305 2.65625C26.6133 2.86719 26.5547 3.16406 26.5547 3.54688V6.62891C26.5547 7.33984 26.8125 7.78125 27.3281 7.95312C27.5547 8.03125 27.8359 8.07031 28.1719 8.07031H30.5156ZM27.7148 3.23047C27.7305 3.15234 27.7734 3.10938 27.8438 3.10156H29.3906C29.4688 3.11719 29.5117 3.16016 29.5195 3.23047V4.95312H27.7148V3.23047ZM34.4648 8.05859C35.1914 8.07422 35.6445 7.88281 35.8242 7.48438C35.9102 7.28125 35.9531 7.02344 35.9531 6.71094V3.44141C35.9531 2.80078 35.7344 2.40625 35.2969 2.25781C35.1094 2.19531 34.875 2.16406 34.5938 2.16406H33.9492C33.4102 2.17188 33.0742 2.37891 32.9414 2.78516V0.0898438H31.7812V8L34.4648 8.05859ZM32.9414 3.23047C32.957 3.15234 32.9961 3.10938 33.0586 3.10156H34.6875C34.7656 3.11719 34.8086 3.16016 34.8164 3.23047V6.96875C34.8008 7.03906 34.7578 7.07812 34.6875 7.08594L32.9414 7.07422V3.23047ZM39.5391 8V1.60156H41.3555V0.558594H36.5391V1.60156H38.3438V8H39.5391ZM45.5625 8.07031V7.09766H42.8906C42.8125 7.08203 42.7695 7.03906 42.7617 6.96875V5.78516H45.7031V3.54688C45.7031 2.89844 45.5156 2.48828 45.1406 2.31641C44.9141 2.21484 44.6055 2.16406 44.2148 2.16406H43.0664C42.3945 2.16406 41.9648 2.32812 41.7773 2.65625C41.6602 2.86719 41.6016 3.16406 41.6016 3.54688V6.62891C41.6016 7.33984 41.8594 7.78125 42.375 7.95312C42.6016 8.03125 42.8828 8.07031 43.2188 8.07031H45.5625ZM42.7617 3.23047C42.7773 3.15234 42.8203 3.10938 42.8906 3.10156H44.4375C44.5156 3.11719 44.5586 3.16016 44.5664 3.23047V4.95312H42.7617V3.23047ZM50.0859 8.09375V7.12109H47.9883C47.9102 7.10547 47.8672 7.0625 47.8594 6.99219V3.26562C47.875 3.1875 47.918 3.14453 47.9883 3.13672H50.0859V2.16406H48.3164C47.5117 2.16406 47.0117 2.39844 46.8164 2.86719C46.7383 3.07031 46.6992 3.31641 46.6992 3.60547V6.65234C46.6992 7.36328 46.957 7.80469 47.4727 7.97656C47.6992 8.05469 47.9805 8.09375 48.3164 8.09375H50.0859ZM53.0273 2.16406C52.5039 2.17188 52.168 2.36328 52.0195 2.73828V0.0898438H50.8711L50.8828 8H52.0312L52.0195 3.23047C52.0352 3.15234 52.0781 3.10938 52.1484 3.10156H53.7656C53.8438 3.11719 53.8867 3.16016 53.8945 3.23047V8H55.043V3.44141C55.043 2.80078 54.8242 2.40625 54.3867 2.25781C54.1992 2.19531 53.9648 2.16406 53.6836 2.16406H53.0273Z" fill="#2071BC"/>
</svg>
